<?xml version="1.0" encoding="utf-8"?>
<!-- Generator: Adobe Illustrator 16.0.4, SVG Export Plug-In . SVG Version: 6.00 Build 0)  -->
<!DOCTYPE svg PUBLIC "-//W3C//DTD SVG 1.1//EN" "http://www.w3.org/Graphics/SVG/1.1/DTD/svg11.dtd">
<svg version="1.1" id="Layer_1" xmlns="http://www.w3.org/2000/svg" xmlns:xlink="http://www.w3.org/1999/xlink" x="0px" y="0px"
	 width="279.236px" height="66.176px" viewBox="0 0 279.236 66.176" enable-background="new 0 0 279.236 66.176"
	 xml:space="preserve">
<g>
	<polygon fill="#E52520" points="167.56,30.059 177.88,30.059 177.88,32.665 170.186,32.665 170.186,35.754 176.062,35.754 
		176.062,38.399 170.186,38.399 170.186,41.833 177.88,41.833 177.88,44.438 167.56,44.438 	"/>
</g>
<g>
	<g>
		<path fill="#E52520" d="M180.507,42.661c0-0.524,0.041-0.687,0.364-1.131l3.13-4.281l-3.13-4.281
			c-0.323-0.445-0.364-0.606-0.364-1.131v-1.778h2.525v1.394c0,0.202,0,0.242,0.101,0.363l2.524,3.434l2.545-3.434
			c0.101-0.121,0.101-0.161,0.101-0.363v-1.394h2.504v1.778c0,0.525-0.02,0.686-0.344,1.131l-3.15,4.281l3.15,4.281
			c0.324,0.444,0.344,0.606,0.344,1.131v1.777h-2.504v-1.394c0-0.201,0-0.242-0.101-0.363l-2.545-3.434l-2.524,3.434
			c-0.101,0.121-0.101,0.162-0.101,0.363v1.394h-2.525V42.661z"/>
		<polygon fill="#E52520" points="196.827,32.665 192.991,32.665 192.991,30.06 203.31,30.06 203.31,32.665 199.453,32.665 
			199.453,44.438 196.827,44.438 		"/>
		<polygon fill="#E52520" points="205.938,30.059 216.257,30.059 216.257,32.665 208.562,32.665 208.562,35.754 214.44,35.754 
			214.44,38.399 208.562,38.399 208.562,41.833 216.257,41.833 216.257,44.438 205.938,44.438 		"/>
		<polygon fill="#E52520" points="219.49,30.059 222.035,30.059 227.185,39.066 227.185,30.059 229.81,30.059 229.81,44.438 
			227.326,44.438 222.116,35.188 222.116,44.438 219.49,44.438 		"/>
		<path fill="#E52520" d="M233.002,41.065l2.465-0.646l0.12,0.383c0.203,0.667,0.505,1.03,1.111,1.03h2.928
			c0.586,0,1.071-0.504,1.071-1.11v-0.707c0-0.443-0.283-0.869-0.688-0.969l-4.543-1.232c-1.435-0.384-2.424-1.838-2.424-3.413
			v-0.667c0-2.12,1.555-3.675,3.675-3.675h2.827c1.959,0,3.554,1.454,3.797,3.352l-2.442,0.667l-0.122-0.384
			c-0.201-0.667-0.505-1.03-1.09-1.03h-2.929c-0.606,0-1.091,0.505-1.091,1.111v0.505c0,0.686,0.384,1.09,1.071,1.272l3.774,0.969
			c1.577,0.404,2.747,1.777,2.747,3.494v0.525c0,2.161-1.615,3.897-3.775,3.897h-2.646
			C234.861,44.438,233.245,42.985,233.002,41.065"/>
		<polygon fill="#E52520" points="245.79,41.833 247.808,41.833 247.808,32.665 245.79,32.665 245.79,30.059 252.474,30.059 
			252.474,32.665 250.454,32.665 250.454,41.833 252.474,41.833 252.474,44.438 245.79,44.438 		"/>
		<path fill="#E52520" d="M255.161,40.601v-6.705c0-2.12,1.717-3.837,3.838-3.837h2.646c2.1,0,3.837,1.717,3.837,3.837v6.705
			c0,2.121-1.737,3.837-3.837,3.837h-2.646C256.877,44.438,255.161,42.722,255.161,40.601 M261.745,41.833
			c0.605,0,1.11-0.505,1.11-1.11v-6.947c0-0.606-0.505-1.11-1.11-1.11h-2.888c-0.606,0-1.091,0.504-1.091,1.11v6.947
			c0,0.605,0.484,1.11,1.091,1.11H261.745z"/>
		<polygon fill="#E52520" points="268.916,30.059 271.461,30.059 276.611,39.066 276.611,30.059 279.236,30.059 279.236,44.438 
			276.751,44.438 271.542,35.188 271.542,44.438 268.916,44.438 		"/>
		<path fill="#E52520" d="M166.915,62.803l2.465-0.646l0.12,0.383c0.202,0.667,0.505,1.03,1.11,1.03h2.928
			c0.587,0,1.071-0.504,1.071-1.11v-0.707c0-0.443-0.283-0.868-0.687-0.969l-4.543-1.231c-1.436-0.385-2.424-1.838-2.424-3.413
			v-0.667c0-2.12,1.555-3.675,3.675-3.675h2.827c1.959,0,3.554,1.453,3.797,3.352l-2.443,0.667l-0.122-0.384
			c-0.201-0.667-0.505-1.03-1.09-1.03h-2.928c-0.607,0-1.091,0.505-1.091,1.111v0.505c0,0.686,0.384,1.09,1.069,1.271l3.776,0.97
			c1.577,0.403,2.747,1.776,2.747,3.493v0.525c0,2.161-1.616,3.898-3.776,3.898h-2.645
			C168.772,66.176,167.156,64.722,166.915,62.803"/>
		<path fill="#E52520" d="M180.104,62.338v-6.705c0-2.12,1.717-3.837,3.837-3.837h2.666c1.958,0,3.554,1.454,3.815,3.353
			l-2.463,0.666l-0.142-0.384c-0.242-0.666-0.484-1.029-1.09-1.029h-2.93c-0.604,0-1.089,0.505-1.089,1.11v6.947
			c0,0.605,0.484,1.111,1.089,1.111h2.889c0.605,0,0.949-0.344,1.131-1.03l0.101-0.384l2.465,0.646
			c-0.243,1.919-1.839,3.373-3.797,3.373h-2.646C181.821,66.175,180.104,64.458,180.104,62.338"/>
		<polygon fill="#E52520" points="193.293,51.796 195.917,51.796 195.917,57.512 200.987,57.512 200.987,51.796 203.612,51.796 
			203.612,66.176 200.987,66.176 200.987,60.137 195.917,60.137 195.917,66.176 193.293,66.176 		"/>
		<path fill="#E52520" d="M207.048,62.338v-6.705c0-2.12,1.717-3.837,3.838-3.837h2.646c2.1,0,3.837,1.717,3.837,3.837v6.705
			c0,2.12-1.737,3.837-3.837,3.837h-2.646C208.765,66.175,207.048,64.458,207.048,62.338 M213.632,63.57
			c0.605,0,1.11-0.505,1.11-1.11v-6.947c0-0.605-0.505-1.11-1.11-1.11h-2.888c-0.606,0-1.091,0.505-1.091,1.11v6.947
			c0,0.605,0.484,1.11,1.091,1.11H213.632z"/>
		<path fill="#E52520" d="M220.4,62.338v-6.705c0-2.12,1.717-3.837,3.838-3.837h2.645c2.101,0,3.837,1.717,3.837,3.837v6.705
			c0,2.12-1.736,3.837-3.837,3.837h-2.645C222.117,66.175,220.4,64.458,220.4,62.338 M226.984,63.57c0.604,0,1.109-0.505,1.109-1.11
			v-6.947c0-0.605-0.505-1.11-1.109-1.11h-2.889c-0.605,0-1.091,0.505-1.091,1.11v6.947c0,0.605,0.485,1.11,1.091,1.11H226.984z"/>
		<polygon fill="#E52520" points="234.154,51.796 236.78,51.796 236.78,63.571 243.767,63.571 243.767,66.176 234.154,66.176 		"/>
		<polygon fill="#E52520" points="167.534,0.438 183.26,0.438 183.26,4.409 171.535,4.409 171.535,9.118 180.491,9.118 
			180.491,13.148 171.535,13.148 171.535,18.38 183.26,18.38 183.26,22.351 167.534,22.351 		"/>
		<path fill="#E52520" d="M188.186,0.438h9.879c3.2,0,5.848,2.616,5.848,5.848v1.262c0,3.2-2.647,5.847-5.848,5.847h-5.878v8.956
			h-4.001V0.438z M198.25,9.394c0.923,0,1.662-0.738,1.662-1.662V6.101c0-0.923-0.739-1.693-1.662-1.693h-6.062v4.986H198.25z"/>
		<polygon fill="#E52520" points="207.915,0.438 223.641,0.438 223.641,4.409 211.916,4.409 211.916,9.118 220.872,9.118 
			220.872,13.148 211.916,13.148 211.916,22.351 207.915,22.351 		"/>
		<polygon fill="#E52520" points="227.49,0.438 231.491,0.438 231.491,18.38 242.138,18.38 242.138,22.351 227.49,22.351 		"/>
	</g>
</g>
<g>
	<defs>
		<rect id="SVGID_1_" y="0.047" width="137.364" height="65.866"/>
	</defs>
	<clipPath id="SVGID_2_">
		<use xlink:href="#SVGID_1_"  overflow="visible"/>
	</clipPath>
	<path clip-path="url(#SVGID_2_)" d="M53.739,0.05c0,0-5.076,8.86-5.268,17.194h4.692v4.02h-4.884c0,0-0.383,8.334,5.46,17.622
		h-4.744c0,0-11.49-15.848,0-38.835H53.739z"/>
	<path clip-path="url(#SVGID_2_)" fill="#E30613" d="M44.479,38.874c0,0-11.492-15.837,0-38.824H0.282v38.824H44.479z"/>
	<path clip-path="url(#SVGID_2_)" d="M71.505,38.892h4.472v-17.62h4.77V17.25h-4.695c0.192-8.332,5.267-17.193,5.267-17.193h-4.737
		c-3.644,7.288-4.978,13.861-5.098,19.437L71.505,38.892z"/>
	<path clip-path="url(#SVGID_2_)" d="M87.811,21.273c0,0-0.384,8.331,5.456,17.621h-4.74c0,0-5.361-7.393-5.095-19.403V0.05h4.356
		L87.811,21.273z"/>
	<path clip-path="url(#SVGID_2_)" fill="#E30613" d="M97.825,38.894c-5.84-9.29-5.459-17.621-5.459-17.621L92.343,0.049h44.919
		l-0.036,38.842L97.825,38.894z"/>
	<rect x="56.667" y="0.049" clip-path="url(#SVGID_2_)" width="4.405" height="38.843"/>
	<path clip-path="url(#SVGID_2_)" d="M67.01,0.05h-4.692c0,0,7.376,9.674,0,19.443h4.692C67.01,19.493,73.96,10.31,67.01,0.05"/>
	<path clip-path="url(#SVGID_2_)" d="M3.897,44.145c0.053,0.094,0,0.122-0.041,0.122c-0.031,0-0.133-0.019-0.309,0
		c-0.509,0.053-1.23,0.29-1.572,0.435c-0.073,0.029-0.135,0.051-0.154,0.051c-0.023,0-0.052-0.021-0.052-0.063
		c0-0.03,0.019-0.05,0.071-0.078c0.373-0.259,1.334-0.84,1.407-0.881c0.175-0.104,0.238-0.134,0.288-0.134
		c0.031,0,0.052,0.02,0.105,0.093C3.712,43.792,3.784,43.936,3.897,44.145 M0.901,48.55c0-1.613,0-1.903-0.021-2.234
		c-0.021-0.351-0.104-0.519-0.444-0.59c-0.085-0.021-0.259-0.033-0.352-0.033C0.042,45.693,0,45.674,0,45.632
		c0-0.062,0.052-0.085,0.166-0.085c0.465,0,1.116,0.031,1.169,0.031c0.072,0,2.13,0,2.369-0.009
		c0.194-0.011,0.361-0.033,0.441-0.053c0.054-0.01,0.094-0.048,0.146-0.048c0.033,0,0.043,0.038,0.043,0.09
		c0,0.073-0.053,0.198-0.083,0.487c-0.012,0.103-0.031,0.558-0.052,0.683c-0.01,0.052-0.031,0.116-0.072,0.116
		c-0.062,0-0.083-0.055-0.083-0.137c0-0.073-0.01-0.251-0.062-0.373c-0.073-0.166-0.175-0.289-0.734-0.35
		c-0.177-0.021-1.303-0.032-1.416-0.032c-0.043,0-0.062,0.032-0.062,0.105v2.85c0,0.073,0.01,0.104,0.062,0.104
		c0.135,0,1.405,0,1.643-0.021c0.249-0.021,0.393-0.043,0.486-0.144c0.073-0.081,0.114-0.132,0.156-0.132
		c0.028,0,0.051,0.021,0.051,0.082c0,0.057-0.051,0.235-0.082,0.578c-0.021,0.21-0.042,0.588-0.042,0.659
		c0,0.086,0,0.199-0.072,0.199c-0.052,0-0.074-0.042-0.074-0.095c0-0.104,0-0.208-0.041-0.341c-0.041-0.144-0.133-0.317-0.539-0.358
		c-0.279-0.034-1.301-0.054-1.477-0.054c-0.052,0-0.071,0.03-0.071,0.071v0.912c0,0.348-0.012,1.549,0,1.77
		c0.029,0.711,0.185,0.846,1.197,0.846c0.27,0,0.726,0,0.994-0.114c0.268-0.112,0.392-0.322,0.465-0.741
		c0.021-0.116,0.041-0.157,0.093-0.157c0.063,0,0.063,0.082,0.063,0.157c0,0.078-0.082,0.782-0.135,0.996
		c-0.073,0.272-0.156,0.272-0.558,0.272c-1.561,0-2.256-0.065-2.554-0.065c-0.053,0-0.704,0.031-1.013,0.031
		c-0.114,0-0.166-0.021-0.166-0.081c0-0.032,0.021-0.063,0.084-0.063c0.092,0,0.215-0.021,0.31-0.041
		c0.205-0.041,0.257-0.267,0.299-0.567c0.052-0.433,0.052-1.25,0.052-2.241V48.55z"/>
	<path clip-path="url(#SVGID_2_)" d="M7.279,52.395c-1.002-0.904-1.251-2.077-1.251-3.06c0-0.693,0.238-1.904,1.158-2.825
		c0.62-0.618,1.562-1.105,3.153-1.105c0.413,0,0.992,0.031,1.5,0.123c0.394,0.073,0.724,0.136,1.056,0.155
		c0.112,0.01,0.133,0.053,0.133,0.114c0,0.085-0.031,0.208-0.052,0.58c-0.02,0.342-0.02,0.906-0.031,1.063
		c-0.01,0.157-0.032,0.22-0.094,0.22c-0.072,0-0.082-0.072-0.082-0.22c0-0.403-0.166-0.827-0.432-1.055
		c-0.365-0.308-1.159-0.589-2.069-0.589c-1.375,0-2.018,0.404-2.379,0.754c-0.755,0.725-0.931,1.645-0.931,2.7
		c0,1.977,1.522,3.786,3.734,3.786c0.776,0,1.384-0.092,1.798-0.52c0.218-0.229,0.351-0.682,0.382-0.868
		c0.023-0.115,0.041-0.159,0.104-0.159c0.052,0,0.073,0.074,0.073,0.159c0,0.074-0.125,0.971-0.227,1.327
		c-0.062,0.191-0.082,0.213-0.27,0.294c-0.414,0.167-1.2,0.24-1.86,0.24C9.14,53.511,8.097,53.126,7.279,52.395"/>
	<path clip-path="url(#SVGID_2_)" d="M15.334,49.159c0-2.264,1.291-3.402,3.019-3.402c1.633,0,3.145,1.335,3.145,3.817
		c0,3.007-1.925,3.546-2.855,3.546C16.781,53.12,15.334,51.564,15.334,49.159 M14.351,49.451c0,1.858,1.18,4.06,4.012,4.06
		c2.492,0,4.125-1.913,4.125-4.228c0-2.407-1.734-3.878-4.063-3.878C15.573,45.405,14.351,47.774,14.351,49.451"/>
	<path clip-path="url(#SVGID_2_)" d="M25.859,50.39c0,1.52,0.042,2.181,0.228,2.369c0.166,0.164,0.436,0.238,1.239,0.238
		c0.55,0,1.004-0.012,1.251-0.312c0.135-0.167,0.24-0.426,0.272-0.62c0.008-0.082,0.029-0.134,0.091-0.134
		c0.054,0,0.062,0.042,0.062,0.155c0,0.112-0.072,0.733-0.153,1.032c-0.073,0.238-0.104,0.28-0.652,0.28
		c-1.489,0-2.172-0.064-2.772-0.064c-0.093,0-0.703,0.03-1.014,0.03c-0.114,0-0.166-0.021-0.166-0.081
		c0-0.032,0.021-0.063,0.085-0.063c0.094,0,0.218-0.021,0.311-0.041c0.206-0.041,0.255-0.267,0.299-0.567
		c0.05-0.433,0.05-1.25,0.05-2.241v-1.82c0-1.613,0-1.903-0.019-2.234c-0.023-0.351-0.104-0.519-0.446-0.59
		c-0.081-0.021-0.259-0.033-0.351-0.033c-0.039,0-0.082-0.019-0.082-0.061c0-0.062,0.052-0.085,0.166-0.085
		c0.464,0,1.116,0.032,1.167,0.032c0.052,0,0.808-0.032,1.117-0.032c0.113,0,0.166,0.022,0.166,0.085
		c0,0.042-0.042,0.061-0.084,0.061c-0.072,0-0.218,0.013-0.34,0.033c-0.301,0.052-0.383,0.229-0.404,0.59
		c-0.021,0.331-0.021,0.621-0.021,2.234V50.39z"/>
	<path clip-path="url(#SVGID_2_)" d="M31.112,48.55c0-1.613,0-1.903-0.021-2.234c-0.02-0.351-0.103-0.519-0.444-0.59
		c-0.083-0.021-0.259-0.033-0.35-0.033c-0.044,0-0.085-0.019-0.085-0.061c0-0.062,0.052-0.085,0.165-0.085
		c0.466,0,1.117,0.031,1.169,0.031c0.072,0,2.131,0,2.369-0.009c0.195-0.011,0.361-0.033,0.442-0.053
		c0.053-0.01,0.095-0.048,0.147-0.048c0.031,0,0.039,0.038,0.039,0.09c0,0.073-0.051,0.198-0.082,0.487
		c-0.009,0.103-0.03,0.558-0.051,0.683c-0.01,0.052-0.03,0.116-0.072,0.116c-0.062,0-0.083-0.055-0.083-0.137
		c0-0.073-0.012-0.251-0.06-0.373c-0.075-0.166-0.178-0.289-0.737-0.35c-0.174-0.021-1.302-0.032-1.417-0.032
		c-0.039,0-0.062,0.032-0.062,0.105v2.85c0,0.073,0.013,0.104,0.062,0.104c0.136,0,1.409,0,1.646-0.021
		c0.247-0.021,0.392-0.043,0.485-0.144c0.071-0.081,0.114-0.132,0.155-0.132c0.03,0,0.053,0.021,0.053,0.082
		c0,0.057-0.053,0.235-0.083,0.578c-0.021,0.21-0.042,0.588-0.042,0.659c0,0.086,0,0.199-0.073,0.199
		c-0.051,0-0.072-0.042-0.072-0.095c0-0.104,0-0.208-0.039-0.341c-0.044-0.144-0.137-0.317-0.54-0.358
		c-0.28-0.034-1.303-0.054-1.477-0.054c-0.052,0-0.075,0.03-0.075,0.071v0.912c0,0.348-0.01,1.549,0,1.77
		c0.033,0.711,0.189,0.846,1.201,0.846c0.27,0,0.722,0,0.992-0.114c0.27-0.112,0.394-0.322,0.465-0.741
		c0.023-0.116,0.043-0.157,0.095-0.157c0.061,0,0.061,0.082,0.061,0.157c0,0.078-0.084,0.782-0.133,0.996
		c-0.075,0.272-0.156,0.272-0.56,0.272c-1.561,0-2.254-0.065-2.554-0.065c-0.052,0-0.703,0.031-1.012,0.031
		c-0.113,0-0.167-0.021-0.167-0.081c0-0.032,0.021-0.063,0.083-0.063c0.094,0,0.218-0.021,0.309-0.041
		c0.208-0.041,0.26-0.267,0.303-0.567c0.05-0.433,0.05-1.25,0.05-2.241V48.55z"/>
	<path clip-path="url(#SVGID_2_)" d="M40.78,48.55c0-1.613,0-1.903-0.023-2.234c-0.019-0.351-0.101-0.519-0.446-0.59
		c-0.078-0.021-0.255-0.033-0.348-0.033c-0.042,0-0.084-0.019-0.084-0.061c0-0.062,0.052-0.085,0.166-0.085
		c0.465,0,1.086,0.031,1.168,0.031c0.228,0,0.826-0.031,1.303-0.031c1.293,0,1.758,0.438,1.924,0.592
		c0.226,0.216,0.518,0.683,0.518,1.229c0,1.471-1.077,2.461-2.545,2.461c-0.052,0-0.166,0-0.218-0.011
		c-0.05,0-0.114-0.019-0.114-0.071c0-0.081,0.064-0.091,0.28-0.091c1.002,0,1.79-0.738,1.79-1.688c0-0.339-0.033-1.031-0.579-1.591
		c-0.55-0.559-1.178-0.517-1.419-0.517c-0.174,0-0.351,0.021-0.442,0.062c-0.062,0.021-0.083,0.092-0.083,0.196v4.251
		c0,0.991,0,1.809,0.05,2.241c0.033,0.301,0.094,0.526,0.403,0.567c0.145,0.02,0.371,0.041,0.466,0.041
		c0.061,0,0.083,0.031,0.083,0.063c0,0.05-0.051,0.081-0.165,0.081c-0.569,0-1.22-0.031-1.272-0.031
		c-0.031,0-0.683,0.031-0.992,0.031c-0.114,0-0.166-0.021-0.166-0.081c0-0.032,0.021-0.063,0.081-0.063
		c0.095,0,0.218-0.021,0.311-0.041c0.208-0.041,0.26-0.267,0.301-0.567c0.052-0.433,0.052-1.25,0.052-2.241V48.55z"/>
	<path clip-path="url(#SVGID_2_)" d="M47.222,49.159c0-2.264,1.291-3.402,3.017-3.402c1.635,0,3.143,1.335,3.143,3.817
		c0,3.007-1.921,3.546-2.855,3.546C48.667,53.12,47.222,51.564,47.222,49.159 M46.239,49.451c0,1.858,1.178,4.06,4.012,4.06
		c2.49,0,4.125-1.913,4.125-4.228c0-2.407-1.737-3.878-4.064-3.878C47.459,45.405,46.239,47.774,46.239,49.451"/>
	<path clip-path="url(#SVGID_2_)" d="M57.539,50.39c0,1.52,0.042,2.181,0.226,2.369c0.168,0.164,0.434,0.238,1.241,0.238
		c0.55,0,1.002-0.012,1.253-0.312c0.133-0.167,0.238-0.426,0.267-0.62c0.011-0.082,0.032-0.134,0.094-0.134
		c0.052,0,0.062,0.042,0.062,0.155c0,0.112-0.072,0.733-0.156,1.032c-0.072,0.238-0.101,0.28-0.651,0.28
		c-1.488,0-2.17-0.064-2.77-0.064c-0.093,0-0.705,0.03-1.014,0.03c-0.112,0-0.164-0.021-0.164-0.081c0-0.032,0.021-0.063,0.08-0.063
		c0.096,0,0.218-0.021,0.312-0.041c0.208-0.041,0.26-0.267,0.299-0.567c0.052-0.433,0.052-1.25,0.052-2.241v-1.82
		c0-1.613,0-1.903-0.019-2.234c-0.021-0.351-0.104-0.519-0.446-0.59c-0.081-0.021-0.257-0.033-0.351-0.033
		c-0.041,0-0.083-0.019-0.083-0.061c0-0.062,0.052-0.085,0.166-0.085c0.463,0,1.114,0.032,1.168,0.032
		c0.053,0,0.805-0.032,1.116-0.032c0.115,0,0.166,0.022,0.166,0.085c0,0.042-0.041,0.061-0.082,0.061
		c-0.075,0-0.218,0.013-0.343,0.033c-0.299,0.052-0.381,0.229-0.4,0.59c-0.023,0.331-0.023,0.621-0.023,2.234V50.39z"/>
	<path clip-path="url(#SVGID_2_)" d="M63.734,50.688c0-0.558-0.104-0.785-0.241-1.083c-0.071-0.164-1.456-2.442-1.815-2.979
		c-0.262-0.382-0.521-0.639-0.706-0.765c-0.155-0.104-0.352-0.167-0.446-0.167c-0.051,0-0.101-0.021-0.101-0.073
		c0-0.041,0.039-0.074,0.133-0.074c0.196,0,0.973,0.033,1.025,0.033c0.072,0,0.466-0.033,0.867-0.033
		c0.114,0,0.135,0.033,0.135,0.074c0,0.044-0.063,0.053-0.156,0.096c-0.081,0.04-0.133,0.104-0.133,0.186
		c0,0.127,0.052,0.247,0.133,0.404c0.166,0.299,1.716,2.967,1.902,3.268c0.197-0.437,1.511-2.698,1.716-3.042
		c0.137-0.216,0.176-0.394,0.176-0.527c0-0.144-0.039-0.258-0.166-0.288c-0.091-0.034-0.153-0.052-0.153-0.104
		c0-0.042,0.062-0.065,0.166-0.065c0.269,0,0.599,0.033,0.683,0.033c0.062,0,0.804-0.033,0.999-0.033
		c0.073,0,0.137,0.023,0.137,0.065c0,0.053-0.052,0.082-0.137,0.082c-0.11,0-0.307,0.043-0.472,0.147
		c-0.208,0.123-0.322,0.249-0.55,0.523c-0.338,0.416-1.789,2.845-1.974,3.292c-0.155,0.371-0.155,0.693-0.155,1.031v0.891
		c0,0.164,0,0.601,0.031,1.034c0.021,0.3,0.114,0.524,0.424,0.565c0.145,0.021,0.373,0.041,0.467,0.041
		c0.059,0,0.082,0.033,0.082,0.064c0,0.051-0.052,0.082-0.166,0.082c-0.568,0-1.22-0.031-1.272-0.031
		c-0.052,0-0.705,0.031-1.014,0.031c-0.115,0-0.164-0.021-0.164-0.082c0-0.031,0.019-0.064,0.081-0.064
		c0.095,0,0.218-0.02,0.312-0.041c0.206-0.041,0.298-0.266,0.319-0.565c0.033-0.434,0.033-0.87,0.033-1.034V50.688z"/>
	<path clip-path="url(#SVGID_2_)" d="M71.755,50.372c0,0.99,0,1.808,0.05,2.24c0.031,0.302,0.095,0.525,0.404,0.567
		c0.146,0.02,0.374,0.04,0.465,0.04c0.062,0,0.082,0.033,0.082,0.065c0,0.05-0.053,0.08-0.163,0.08c-0.57,0-1.219-0.03-1.271-0.03
		c-0.052,0-0.701,0.03-1.013,0.03c-0.116,0-0.168-0.021-0.168-0.08c0-0.032,0.021-0.065,0.083-0.065c0.095,0,0.218-0.021,0.313-0.04
		c0.205-0.042,0.258-0.266,0.297-0.567c0.054-0.433,0.054-1.25,0.054-2.24v-4.374l-1.532,0.017
		c-0.641,0.014-0.889,0.086-1.055,0.333c-0.114,0.174-0.143,0.247-0.175,0.32c-0.03,0.083-0.062,0.104-0.103,0.104
		c-0.031,0-0.054-0.03-0.054-0.094c0-0.104,0.209-0.994,0.228-1.077c0.021-0.062,0.064-0.196,0.104-0.196
		c0.072,0,0.176,0.104,0.456,0.124c0.299,0.031,0.691,0.052,0.816,0.052h3.879c0.66,0,0.937-0.102,1.021-0.102
		c0.052,0,0.052,0.06,0.052,0.122c0,0.312-0.029,1.025-0.029,1.141c0,0.092-0.031,0.135-0.075,0.135
		c-0.052,0-0.071-0.03-0.084-0.178l-0.01-0.114c-0.039-0.309-0.273-0.546-1.269-0.569l-1.303-0.017V50.372z"/>
	<path clip-path="url(#SVGID_2_)" d="M76.696,48.55c0-1.613,0-1.903-0.018-2.234c-0.021-0.351-0.102-0.519-0.446-0.59
		c-0.083-0.021-0.257-0.033-0.353-0.033c-0.039,0-0.079-0.019-0.079-0.061c0-0.062,0.05-0.085,0.164-0.085
		c0.462,0,1.116,0.031,1.168,0.031c0.073,0,2.13,0,2.365-0.009c0.199-0.011,0.365-0.033,0.449-0.053
		c0.052-0.01,0.091-0.048,0.143-0.048c0.033,0,0.04,0.038,0.04,0.09c0,0.073-0.051,0.198-0.08,0.487
		c-0.012,0.103-0.031,0.558-0.051,0.683c-0.013,0.052-0.03,0.116-0.071,0.116c-0.065,0-0.088-0.055-0.088-0.137
		c0-0.073-0.007-0.251-0.062-0.373c-0.071-0.166-0.174-0.289-0.732-0.35c-0.176-0.021-1.305-0.032-1.417-0.032
		c-0.04,0-0.063,0.032-0.063,0.105v2.85c0,0.073,0.011,0.104,0.063,0.104c0.132,0,1.407,0,1.645-0.021
		c0.247-0.021,0.392-0.043,0.486-0.144c0.073-0.081,0.114-0.132,0.156-0.132c0.031,0,0.053,0.021,0.053,0.082
		c0,0.057-0.053,0.235-0.083,0.578c-0.023,0.21-0.046,0.588-0.046,0.659c0,0.086,0,0.199-0.07,0.199
		c-0.054,0-0.073-0.042-0.073-0.095c0-0.104,0-0.208-0.039-0.341c-0.042-0.144-0.137-0.317-0.54-0.358
		c-0.278-0.034-1.303-0.054-1.477-0.054c-0.052,0-0.075,0.03-0.075,0.071v0.912c0,0.348-0.008,1.549,0,1.77
		c0.032,0.711,0.185,0.846,1.2,0.846c0.27,0,0.721,0,0.994-0.114c0.269-0.112,0.392-0.322,0.464-0.741
		c0.023-0.116,0.042-0.157,0.093-0.157c0.06,0,0.06,0.082,0.06,0.157c0,0.078-0.081,0.782-0.13,0.996
		c-0.075,0.272-0.157,0.272-0.56,0.272c-1.56,0-2.253-0.065-2.554-0.065c-0.052,0-0.706,0.031-1.015,0.031
		c-0.111,0-0.163-0.021-0.163-0.081c0-0.032,0.021-0.063,0.081-0.063c0.093,0,0.219-0.021,0.313-0.041
		c0.205-0.041,0.257-0.267,0.299-0.567c0.049-0.433,0.049-1.25,0.049-2.241V48.55z"/>
	<path clip-path="url(#SVGID_2_)" d="M83.076,52.395c-1.005-0.904-1.251-2.077-1.251-3.06c0-0.693,0.236-1.904,1.157-2.825
		c0.621-0.618,1.561-1.105,3.157-1.105c0.412,0,0.989,0.031,1.499,0.123c0.39,0.073,0.724,0.136,1.054,0.155
		c0.11,0.01,0.133,0.053,0.133,0.114c0,0.085-0.033,0.208-0.049,0.58c-0.026,0.342-0.026,0.906-0.034,1.063
		c-0.008,0.157-0.029,0.22-0.089,0.22c-0.074,0-0.083-0.072-0.083-0.22c0-0.403-0.168-0.827-0.435-1.055
		c-0.361-0.308-1.158-0.589-2.066-0.589c-1.379,0-2.018,0.404-2.383,0.754c-0.756,0.725-0.929,1.645-0.929,2.7
		c0,1.977,1.523,3.786,3.73,3.786c0.776,0,1.388-0.092,1.798-0.52c0.223-0.229,0.358-0.682,0.387-0.868
		c0.02-0.115,0.041-0.159,0.104-0.159c0.049,0,0.067,0.074,0.067,0.159c0,0.074-0.119,0.971-0.223,1.327
		c-0.062,0.191-0.081,0.213-0.27,0.294c-0.416,0.167-1.201,0.24-1.863,0.24C84.938,53.511,83.892,53.126,83.076,52.395"/>
	<path clip-path="url(#SVGID_2_)" d="M97.573,50.372c0,0.99,0,1.808,0.052,2.24c0.031,0.302,0.094,0.525,0.405,0.567
		c0.142,0.02,0.368,0.04,0.464,0.04c0.063,0,0.083,0.033,0.083,0.065c0,0.05-0.052,0.08-0.166,0.08c-0.568,0-1.217-0.03-1.271-0.03
		c-0.05,0-0.704,0.03-1.015,0.03c-0.112,0-0.164-0.021-0.164-0.08c0-0.032,0.019-0.065,0.083-0.065c0.092,0,0.219-0.021,0.31-0.04
		c0.206-0.042,0.257-0.266,0.298-0.567c0.054-0.433,0.054-1.25,0.054-2.24v-1.088c0-0.043-0.033-0.062-0.065-0.062h-4.384
		c-0.031,0-0.061,0.01-0.061,0.062v1.088c0,0.99,0,1.808,0.049,2.24c0.033,0.302,0.094,0.525,0.407,0.567
		c0.146,0.02,0.371,0.04,0.462,0.04c0.065,0,0.086,0.033,0.086,0.065c0,0.05-0.054,0.08-0.166,0.08c-0.568,0-1.22-0.03-1.27-0.03
		c-0.052,0-0.703,0.03-1.012,0.03c-0.117,0-0.169-0.021-0.169-0.08c0-0.032,0.022-0.065,0.084-0.065c0.091,0,0.215-0.021,0.309-0.04
		c0.21-0.042,0.262-0.266,0.303-0.567c0.049-0.433,0.049-1.25,0.049-2.24V48.55c0-1.613,0-1.904-0.02-2.235
		c-0.021-0.35-0.101-0.518-0.446-0.589c-0.081-0.021-0.257-0.033-0.351-0.033c-0.042,0-0.081-0.019-0.081-0.061
		c0-0.063,0.049-0.085,0.162-0.085c0.469,0,1.12,0.032,1.172,0.032c0.05,0,0.702-0.032,1.012-0.032c0.117,0,0.167,0.021,0.167,0.085
		c0,0.042-0.041,0.061-0.083,0.061c-0.071,0-0.135,0.013-0.26,0.033c-0.28,0.052-0.361,0.229-0.384,0.589
		c-0.02,0.331-0.02,0.622-0.02,2.235v0.217c0,0.05,0.03,0.059,0.061,0.059h4.384c0.032,0,0.065-0.009,0.065-0.059V48.55
		c0-1.613,0-1.904-0.023-2.235c-0.019-0.35-0.104-0.518-0.442-0.589c-0.082-0.021-0.261-0.033-0.352-0.033
		c-0.042,0-0.086-0.019-0.086-0.061c0-0.063,0.054-0.085,0.167-0.085c0.466,0,1.12,0.032,1.17,0.032c0.054,0,0.703-0.032,1.01-0.032
		c0.114,0,0.166,0.021,0.166,0.085c0,0.042-0.042,0.061-0.081,0.061c-0.073,0-0.133,0.013-0.255,0.033
		c-0.282,0.052-0.366,0.229-0.386,0.589c-0.021,0.331-0.021,0.622-0.021,2.235V50.372z"/>
	<path clip-path="url(#SVGID_2_)" d="M101.534,51.96c0.021,0.85,0.12,1.116,0.402,1.197c0.198,0.054,0.426,0.062,0.516,0.062
		c0.052,0,0.081,0.021,0.081,0.064c0,0.06-0.059,0.082-0.182,0.082c-0.593,0-1.002-0.031-1.097-0.031
		c-0.094,0-0.527,0.031-0.992,0.031c-0.104,0-0.166-0.009-0.166-0.082c0-0.043,0.031-0.064,0.081-0.064
		c0.085,0,0.27-0.008,0.426-0.062c0.258-0.07,0.308-0.369,0.308-1.311l0.013-5.924c0-0.406,0.031-0.519,0.112-0.519
		c0.085,0,0.262,0.228,0.365,0.332c0.154,0.175,1.695,1.841,3.286,3.546c1.025,1.098,2.15,2.354,2.482,2.701l-0.114-5.255
		c-0.009-0.67-0.086-0.899-0.403-0.982c-0.186-0.041-0.423-0.053-0.508-0.053c-0.071,0-0.084-0.03-0.084-0.073
		c0-0.061,0.084-0.074,0.208-0.074c0.465,0,0.963,0.033,1.077,0.033c0.117,0,0.455-0.033,0.878-0.033
		c0.114,0,0.186,0.014,0.186,0.074c0,0.043-0.043,0.073-0.112,0.073c-0.053,0-0.124,0-0.249,0.032
		c-0.342,0.071-0.384,0.303-0.384,0.921l-0.021,6.058c0,0.683-0.022,0.733-0.093,0.733c-0.081,0-0.202-0.115-0.755-0.66
		c-0.112-0.105-1.604-1.622-2.696-2.804c-1.199-1.289-2.37-2.595-2.698-2.967L101.534,51.96z"/>
	<path clip-path="url(#SVGID_2_)" d="M111.913,50.372c0,0.99,0,1.808,0.052,2.24c0.031,0.302,0.094,0.525,0.407,0.567
		c0.143,0.02,0.367,0.04,0.462,0.04c0.062,0,0.081,0.033,0.081,0.065c0,0.05-0.052,0.08-0.162,0.08c-0.571,0-1.221-0.03-1.273-0.03
		c-0.052,0-0.701,0.03-1.013,0.03c-0.116,0-0.166-0.021-0.166-0.08c0-0.032,0.018-0.065,0.08-0.065c0.094,0,0.221-0.021,0.314-0.04
		c0.206-0.042,0.258-0.266,0.297-0.567c0.051-0.433,0.051-1.25,0.051-2.24V48.55c0-1.613,0-1.904-0.018-2.235
		c-0.02-0.35-0.124-0.527-0.352-0.579c-0.113-0.03-0.25-0.043-0.322-0.043c-0.04,0-0.081-0.019-0.081-0.061
		c0-0.063,0.049-0.085,0.163-0.085c0.346,0,0.995,0.032,1.047,0.032c0.052,0,0.702-0.032,1.016-0.032
		c0.11,0,0.162,0.021,0.162,0.085c0,0.042-0.042,0.061-0.081,0.061c-0.072,0-0.134,0.013-0.257,0.033
		c-0.283,0.052-0.366,0.229-0.387,0.589c-0.02,0.331-0.02,0.622-0.02,2.235V50.372z"/>
	<path clip-path="url(#SVGID_2_)" d="M115.397,49.158c0-2.262,1.295-3.401,3.02-3.401c1.633,0,3.143,1.336,3.143,3.816
		c0,3.007-1.923,3.546-2.854,3.546C116.845,53.119,115.397,51.565,115.397,49.158 M121.82,54.121
		c1.674,0.922,3.006,1.389,4.262,1.389c1.528,0,2.686-0.445,3.275-0.715c0.063-0.032,0.085-0.062,0.085-0.104
		c0-0.028-0.022-0.06-0.064-0.06c-0.031,0-0.085,0.021-0.146,0.042c-0.711,0.285-1.518,0.401-2.037,0.401
		c-0.516,0-2.086-0.054-4.353-1.217l-2.12-1.098c0.682-0.449,1.833-1.656,1.833-3.477c0-2.397-1.739-3.878-4.063-3.878
		c-2.854,0-4.077,2.369-4.077,4.046c0,1.859,1.179,4.061,4.046,4.061c0.546,0,1.249-0.154,1.622-0.354L121.82,54.121z"/>
	<path clip-path="url(#SVGID_2_)" d="M124.507,48.55c0-1.613,0-1.903-0.019-2.234c-0.022-0.351-0.103-0.519-0.448-0.59
		c-0.083-0.021-0.259-0.033-0.35-0.033c-0.039,0-0.083-0.019-0.083-0.061c0-0.062,0.054-0.085,0.165-0.085
		c0.467,0,1.096,0.031,1.19,0.031c0.093,0,0.71-0.031,1.022-0.031c0.117,0,0.168,0.022,0.168,0.085c0,0.042-0.044,0.061-0.082,0.061
		c-0.074,0-0.135,0.013-0.262,0.033c-0.279,0.04-0.359,0.228-0.38,0.59c-0.02,0.331-0.02,0.621-0.02,2.234v1.445
		c0,1.488,0.329,2.135,0.776,2.554c0.505,0.479,0.971,0.569,1.56,0.569c0.628,0,1.25-0.299,1.624-0.746
		c0.475-0.587,0.597-1.467,0.597-2.531V48.55c0-1.613,0-1.903-0.02-2.234c-0.021-0.351-0.102-0.519-0.444-0.59
		c-0.081-0.021-0.258-0.033-0.353-0.033c-0.042,0-0.081-0.019-0.081-0.061c0-0.062,0.05-0.085,0.164-0.085
		c0.465,0,1.036,0.031,1.098,0.031c0.074,0,0.557-0.031,0.871-0.031c0.113,0,0.162,0.022,0.162,0.085
		c0,0.042-0.039,0.061-0.081,0.061c-0.072,0-0.137,0-0.26,0.033c-0.28,0.052-0.363,0.228-0.384,0.59
		c-0.021,0.331-0.021,0.621-0.021,2.234v1.105c0,1.114-0.123,2.358-0.952,3.092c-0.742,0.66-1.516,0.764-2.131,0.764
		c-0.347,0-1.393-0.042-2.125-0.733c-0.509-0.488-0.901-1.214-0.901-2.72V48.55z"/>
	<path clip-path="url(#SVGID_2_)" d="M133.689,48.55c0-1.613,0-1.903-0.021-2.234c-0.02-0.351-0.103-0.519-0.446-0.59
		c-0.081-0.021-0.255-0.033-0.35-0.033c-0.042,0-0.083-0.019-0.083-0.061c0-0.062,0.052-0.085,0.166-0.085
		c0.464,0,1.116,0.031,1.167,0.031c0.071,0,2.131,0,2.368-0.009c0.196-0.011,0.362-0.033,0.446-0.053
		c0.049-0.01,0.093-0.048,0.143-0.048c0.034,0,0.043,0.038,0.043,0.09c0,0.073-0.053,0.198-0.085,0.487
		c-0.008,0.103-0.031,0.558-0.052,0.683c-0.01,0.052-0.029,0.116-0.072,0.116c-0.061,0-0.083-0.055-0.083-0.137
		c0-0.073-0.009-0.251-0.062-0.373c-0.069-0.166-0.175-0.289-0.732-0.35c-0.175-0.021-1.303-0.032-1.416-0.032
		c-0.041,0-0.064,0.032-0.064,0.105v2.85c0,0.073,0.013,0.104,0.064,0.104c0.133,0,1.404,0,1.643-0.021
		c0.247-0.021,0.393-0.043,0.483-0.144c0.075-0.081,0.115-0.132,0.158-0.132c0.032,0,0.052,0.021,0.052,0.082
		c0,0.057-0.052,0.235-0.082,0.578c-0.022,0.21-0.044,0.588-0.044,0.659c0,0.086,0,0.199-0.073,0.199
		c-0.049,0-0.071-0.042-0.071-0.095c0-0.104,0-0.208-0.039-0.341c-0.044-0.144-0.137-0.317-0.541-0.358
		c-0.276-0.034-1.301-0.054-1.475-0.054c-0.052,0-0.075,0.03-0.075,0.071v0.912c0,0.348-0.008,1.549,0,1.77
		c0.031,0.711,0.19,0.846,1.199,0.846c0.269,0,0.724,0,0.991-0.114c0.273-0.112,0.398-0.322,0.468-0.741
		c0.023-0.116,0.044-0.157,0.093-0.157c0.063,0,0.063,0.082,0.063,0.157c0,0.078-0.081,0.782-0.133,0.996
		c-0.072,0.272-0.158,0.272-0.561,0.272c-1.565,0-2.253-0.065-2.554-0.065c-0.051,0-0.703,0.031-1.012,0.031
		c-0.112,0-0.164-0.021-0.164-0.081c0-0.032,0.021-0.063,0.082-0.063c0.093,0,0.217-0.021,0.305-0.041
		c0.21-0.041,0.262-0.267,0.304-0.567c0.052-0.433,0.052-1.25,0.052-2.241V48.55z"/>
	<path clip-path="url(#SVGID_2_)" d="M0.979,60.955c0-1.611,0-1.899-0.023-2.232c-0.019-0.354-0.101-0.515-0.444-0.587
		c-0.081-0.021-0.258-0.031-0.351-0.031c-0.041,0-0.083-0.021-0.083-0.061c0-0.065,0.052-0.085,0.166-0.085
		c0.465,0,1.117,0.031,1.168,0.031c0.206,0,2.306,0,2.544-0.012c0.195-0.011,0.363-0.011,0.452-0.041
		c0.065-0.02,0.108-0.062,0.147-0.062c0.042,0,0.062,0.042,0.062,0.092c0,0.076-0.051,0.199-0.082,0.486
		c-0.01,0.104-0.031,0.56-0.052,0.681c-0.01,0.051-0.031,0.114-0.081,0.114c-0.052,0-0.074-0.052-0.074-0.124
		c0-0.082-0.03-0.257-0.092-0.392s-0.301-0.321-0.703-0.332l-1.594-0.032c-0.062,0-0.093,0.032-0.093,0.116v2.854
		c0,0.062,0.011,0.093,0.073,0.093l1.325-0.01c0.174,0,0.32,0,0.465-0.01c0.247-0.021,0.38-0.052,0.475-0.188
		c0.042-0.054,0.071-0.104,0.114-0.104c0.039,0,0.052,0.03,0.052,0.084c0,0.061-0.052,0.238-0.085,0.575
		c-0.019,0.208-0.039,0.624-0.039,0.696c0,0.089,0,0.193-0.075,0.193c-0.052,0-0.071-0.041-0.071-0.092
		c-0.01-0.102-0.022-0.245-0.062-0.371c-0.052-0.146-0.217-0.331-0.537-0.374c-0.26-0.031-1.386-0.031-1.562-0.031
		c-0.052,0-0.073,0.02-0.073,0.094v0.879c0,0.993,0,1.81,0.052,2.245c0.031,0.298,0.093,0.526,0.403,0.567
		c0.145,0.022,0.373,0.043,0.464,0.043c0.062,0,0.083,0.03,0.083,0.062c0,0.055-0.05,0.083-0.164,0.083
		c-0.57,0-1.22-0.028-1.272-0.028c-0.051,0-0.703,0.028-1.012,0.028c-0.116,0-0.166-0.02-0.166-0.083
		c0-0.031,0.02-0.062,0.081-0.062c0.095,0,0.218-0.021,0.313-0.043c0.205-0.041,0.257-0.27,0.299-0.567
		c0.052-0.436,0.052-1.252,0.052-2.245V60.955z"/>
	<path clip-path="url(#SVGID_2_)" d="M10.097,56.549c0.051,0.092,0,0.126-0.042,0.126c-0.029,0-0.132-0.022-0.309,0
		c-0.508,0.051-1.232,0.29-1.572,0.436c-0.071,0.031-0.135,0.052-0.156,0.052c-0.019,0-0.05-0.021-0.05-0.063
		c0-0.03,0.019-0.052,0.071-0.083c0.374-0.259,1.334-0.837,1.407-0.879c0.176-0.104,0.238-0.135,0.29-0.135
		c0.031,0,0.051,0.021,0.103,0.094C9.91,56.201,9.985,56.345,10.097,56.549 M7.099,60.955c0-1.611,0-1.899-0.021-2.232
		c-0.021-0.354-0.103-0.515-0.444-0.587c-0.085-0.021-0.259-0.031-0.352-0.031c-0.042,0-0.084-0.021-0.084-0.061
		c0-0.065,0.052-0.085,0.167-0.085c0.466,0,1.116,0.031,1.167,0.031c0.073,0,2.131,0,2.37-0.012
		c0.195-0.011,0.361-0.029,0.444-0.051c0.051-0.01,0.093-0.052,0.145-0.052c0.029,0,0.041,0.042,0.041,0.092
		c0,0.076-0.051,0.199-0.082,0.486c-0.011,0.104-0.032,0.56-0.053,0.681c-0.01,0.051-0.031,0.114-0.072,0.114
		c-0.062,0-0.083-0.052-0.083-0.136c0-0.07-0.01-0.245-0.062-0.369c-0.071-0.167-0.175-0.29-0.734-0.354
		c-0.175-0.021-1.303-0.032-1.416-0.032c-0.043,0-0.062,0.032-0.062,0.105v2.854c0,0.074,0.01,0.105,0.062,0.105
		c0.135,0,1.405,0,1.643-0.021c0.25-0.021,0.393-0.041,0.484-0.145c0.075-0.086,0.116-0.136,0.157-0.136
		c0.032,0,0.052,0.018,0.052,0.084c0,0.061-0.052,0.238-0.082,0.575c-0.021,0.208-0.042,0.594-0.042,0.664
		c0,0.081,0,0.193-0.072,0.193c-0.05,0-0.073-0.041-0.073-0.093c0-0.101,0-0.202-0.042-0.338c-0.041-0.146-0.132-0.322-0.535-0.362
		c-0.282-0.032-1.305-0.052-1.481-0.052c-0.052,0-0.071,0.028-0.071,0.071v0.91c0,0.354-0.01,1.551,0,1.769
		c0.031,0.714,0.185,0.847,1.199,0.847c0.268,0,0.724,0,0.99-0.115c0.272-0.112,0.396-0.317,0.469-0.741
		c0.019-0.115,0.041-0.157,0.091-0.157c0.062,0,0.062,0.085,0.062,0.157c0,0.084-0.081,0.784-0.134,1.002
		c-0.071,0.27-0.154,0.27-0.559,0.27c-1.56,0-2.252-0.059-2.554-0.059c-0.051,0-0.701,0.028-1.012,0.028
		c-0.114,0-0.166-0.02-0.166-0.083c0-0.031,0.021-0.062,0.084-0.062c0.092,0,0.215-0.021,0.31-0.043
		c0.206-0.041,0.257-0.27,0.299-0.567c0.052-0.436,0.052-1.252,0.052-2.245V60.955z"/>
	<path clip-path="url(#SVGID_2_)" d="M14.276,60.789c0-0.796,0-1.847,0.01-2.201c0-0.113,0.029-0.166,0.12-0.207
		c0.085-0.041,0.469-0.074,0.674-0.074c1.23,0,2.411,0.147,3.38,1.171c0.427,0.445,0.996,1.293,0.996,2.606
		c0,0.951-0.29,1.943-0.828,2.469c-0.61,0.61-1.502,0.963-2.461,0.963c-1.22,0-1.624-0.218-1.761-0.413
		c-0.081-0.114-0.1-0.526-0.11-0.789c-0.01-0.191-0.02-1.143-0.02-2.241V60.789z M13.406,62.775c0,0.993,0,1.81-0.054,2.245
		c-0.039,0.298-0.091,0.526-0.299,0.567c-0.091,0.022-0.215,0.043-0.309,0.043c-0.062,0-0.085,0.03-0.085,0.062
		c0,0.063,0.054,0.083,0.166,0.083c0.311,0,0.963-0.028,1.015-0.028c0.103,0,1.406,0.122,2.296,0.122
		c1.758,0,2.687-0.728,3.133-1.19c0.577-0.61,1.117-1.612,1.117-2.916c0-1.229-0.488-2.087-1.005-2.629
		c-1.23-1.27-3.122-1.175-4.145-1.175c-0.621,0-1.272,0.032-1.396,0.032c-0.052,0-0.704-0.032-1.169-0.032
		c-0.113,0-0.165,0.02-0.165,0.085c0,0.04,0.043,0.061,0.085,0.061c0.091,0,0.267,0.011,0.348,0.031
		c0.342,0.072,0.426,0.233,0.446,0.587c0.021,0.333,0.021,0.621,0.021,2.232V62.775z"/>
	<path clip-path="url(#SVGID_2_)" d="M25.472,56.549c0.052,0.092,0,0.126-0.04,0.126c-0.031,0-0.135-0.022-0.311,0
		c-0.506,0.051-1.23,0.29-1.572,0.436c-0.073,0.031-0.135,0.052-0.154,0.052c-0.021,0-0.052-0.021-0.052-0.063
		c0-0.03,0.019-0.052,0.071-0.083c0.373-0.259,1.334-0.837,1.407-0.879c0.176-0.104,0.238-0.135,0.29-0.135
		c0.029,0,0.052,0.021,0.103,0.094C25.285,56.201,25.357,56.345,25.472,56.549 M22.474,60.955c0-1.611,0-1.899-0.021-2.232
		c-0.02-0.354-0.104-0.515-0.446-0.587c-0.081-0.021-0.257-0.031-0.35-0.031c-0.042,0-0.083-0.021-0.083-0.061
		c0-0.065,0.052-0.085,0.166-0.085c0.464,0,1.116,0.031,1.168,0.031c0.072,0,2.128,0,2.369-0.012
		c0.195-0.011,0.361-0.029,0.444-0.051c0.051-0.01,0.093-0.052,0.145-0.052c0.031,0,0.039,0.042,0.039,0.092
		c0,0.076-0.052,0.199-0.081,0.486c-0.01,0.104-0.031,0.56-0.052,0.681c-0.01,0.051-0.031,0.114-0.072,0.114
		c-0.062,0-0.083-0.052-0.083-0.136c0-0.07-0.011-0.245-0.062-0.369c-0.073-0.167-0.177-0.29-0.734-0.354
		c-0.175-0.021-1.303-0.032-1.418-0.032c-0.041,0-0.06,0.032-0.06,0.105v2.854c0,0.074,0.011,0.105,0.06,0.105
		c0.137,0,1.409,0,1.646-0.021c0.248-0.021,0.392-0.041,0.485-0.145c0.072-0.086,0.114-0.136,0.156-0.136
		c0.031,0,0.051,0.018,0.051,0.084c0,0.061-0.051,0.238-0.083,0.575c-0.02,0.208-0.041,0.594-0.041,0.664
		c0,0.081,0,0.193-0.073,0.193c-0.051,0-0.072-0.041-0.072-0.093c0-0.101,0-0.202-0.04-0.338c-0.043-0.146-0.135-0.322-0.539-0.362
		c-0.278-0.032-1.303-0.052-1.479-0.052c-0.052,0-0.071,0.028-0.071,0.071v0.91c0,0.354-0.012,1.551,0,1.769
		c0.031,0.714,0.185,0.847,1.199,0.847c0.27,0,0.724,0,0.992-0.115c0.27-0.112,0.394-0.317,0.465-0.741
		c0.021-0.115,0.043-0.157,0.095-0.157c0.061,0,0.061,0.085,0.061,0.157c0,0.084-0.084,0.784-0.135,1.002
		c-0.073,0.27-0.154,0.27-0.558,0.27c-1.561,0-2.254-0.059-2.554-0.059c-0.052,0-0.704,0.028-1.015,0.028
		c-0.112,0-0.162-0.02-0.162-0.083c0-0.031,0.019-0.062,0.081-0.062c0.093,0,0.218-0.021,0.311-0.043
		c0.205-0.041,0.258-0.27,0.297-0.567c0.054-0.436,0.054-1.252,0.054-2.245V60.955z"/>
	<path clip-path="url(#SVGID_2_)" d="M29.606,58.474c0-0.062,0.031-0.105,0.083-0.125c0.103-0.032,0.384-0.062,0.693-0.062
		c1.106,0,1.788,0.777,1.788,2.067c0,0.785-0.268,1.345-0.631,1.594c-0.238,0.167-0.527,0.196-0.774,0.196
		c-0.456,0-0.931-0.072-1.087-0.164c-0.052-0.032-0.072-0.072-0.072-0.126V58.474z M28.781,62.775c0,0.993,0,1.81-0.052,2.245
		c-0.042,0.298-0.093,0.526-0.301,0.567c-0.093,0.022-0.216,0.043-0.311,0.043c-0.06,0-0.081,0.03-0.081,0.062
		c0,0.063,0.052,0.083,0.166,0.083c0.309,0,0.963-0.028,0.973-0.028c0.048,0,0.701,0.028,1.272,0.028
		c0.11,0,0.162-0.028,0.162-0.083c0-0.031-0.019-0.062-0.081-0.062c-0.093,0-0.32-0.021-0.467-0.043
		c-0.309-0.041-0.371-0.27-0.402-0.567c-0.052-0.436-0.052-1.252-0.052-2.245v-0.249c0-0.049,0.02-0.081,0.072-0.081l1.272,0.021
		c0.062,0,0.094,0.021,0.135,0.06c0.207,0.27,0.693,0.963,1.127,1.533c0.589,0.775,0.952,1.279,1.396,1.521
		c0.27,0.146,0.527,0.195,1.107,0.195h0.733c0.187,0,0.249-0.02,0.249-0.083c0-0.031-0.042-0.062-0.094-0.062
		c-0.062,0-0.205,0-0.404-0.032c-0.257-0.042-0.701-0.157-1.259-0.741c-0.602-0.644-1.305-1.563-2.152-2.649
		c0.93-0.857,1.251-1.622,1.251-2.389c0-0.715-0.454-1.221-0.713-1.407c-0.548-0.39-1.241-0.453-1.892-0.453
		c-0.322,0-1.106,0.032-1.221,0.032c-0.049,0-0.703-0.032-1.168-0.032c-0.111,0-0.165,0.02-0.165,0.085
		c0,0.04,0.041,0.061,0.083,0.061c0.093,0,0.269,0.011,0.352,0.031c0.341,0.072,0.423,0.233,0.444,0.587
		c0.021,0.333,0.021,0.621,0.021,2.232V62.775z"/>
	<path clip-path="url(#SVGID_2_)" d="M37.166,62.354c-0.029,0-0.052-0.021-0.029-0.073l0.907-2.794c0.052-0.156,0.103-0.156,0.155,0
		l0.984,2.794c0.01,0.043,0.01,0.073-0.042,0.073H37.166z M35.717,64.636c-0.185,0.516-0.394,0.91-0.869,0.975
		c-0.081,0.01-0.227,0.02-0.299,0.02c-0.05,0-0.094,0.021-0.094,0.062c0,0.062,0.061,0.083,0.198,0.083
		c0.485,0,1.054-0.03,1.168-0.03s0.558,0.03,0.807,0.03c0.091,0,0.155-0.021,0.155-0.083c0-0.042-0.031-0.062-0.104-0.062h-0.103
		c-0.176,0-0.394-0.095-0.394-0.302c0-0.188,0.052-0.432,0.147-0.692l0.618-1.831c0.023-0.05,0.052-0.081,0.104-0.081h2.222
		c0.052,0,0.073,0.02,0.094,0.061l0.962,2.544c0.063,0.166,0,0.259-0.063,0.282c-0.04,0.01-0.072,0.03-0.072,0.07
		c0,0.064,0.114,0.064,0.312,0.074c0.713,0.021,1.468,0.021,1.622,0.021c0.116,0,0.207-0.021,0.207-0.083
		c0-0.052-0.042-0.062-0.104-0.062c-0.103,0-0.257-0.01-0.414-0.061c-0.217-0.063-0.517-0.231-0.888-1.151
		c-0.631-1.571-2.254-5.843-2.411-6.234c-0.123-0.32-0.162-0.372-0.226-0.372c-0.062,0-0.102,0.063-0.226,0.403L35.717,64.636z"/>
	<path clip-path="url(#SVGID_2_)" d="M44.683,62.795c0,1.519,0.041,2.186,0.226,2.367c0.166,0.166,0.436,0.239,1.243,0.239
		c0.546,0,1-0.011,1.249-0.312c0.135-0.16,0.238-0.422,0.269-0.618c0.011-0.084,0.032-0.137,0.094-0.137
		c0.052,0,0.062,0.041,0.062,0.157c0,0.115-0.073,0.732-0.156,1.035c-0.07,0.239-0.103,0.278-0.649,0.278
		c-1.491,0-2.174-0.06-2.772-0.06c-0.093,0-0.703,0.029-1.014,0.029c-0.114,0-0.164-0.02-0.164-0.083
		c0-0.031,0.019-0.062,0.081-0.062c0.093,0,0.218-0.021,0.309-0.044c0.209-0.04,0.26-0.269,0.303-0.565
		c0.05-0.437,0.05-1.252,0.05-2.245v-1.822c0-1.609,0-1.897-0.021-2.231c-0.021-0.354-0.102-0.515-0.442-0.587
		c-0.085-0.021-0.261-0.031-0.355-0.031c-0.041,0-0.081-0.021-0.081-0.062c0-0.063,0.052-0.084,0.165-0.084
		c0.466,0,1.117,0.031,1.169,0.031c0.052,0,0.806-0.031,1.115-0.031c0.114,0,0.166,0.021,0.166,0.084c0,0.04-0.04,0.062-0.084,0.062
		c-0.072,0-0.215,0.011-0.339,0.031c-0.299,0.05-0.383,0.224-0.403,0.587c-0.021,0.334-0.021,0.622-0.021,2.231V62.795z"/>
	<path clip-path="url(#SVGID_2_)" d="M49.934,60.955c0-1.611,0-1.899-0.019-2.232c-0.022-0.354-0.105-0.515-0.446-0.587
		c-0.082-0.021-0.259-0.031-0.352-0.031c-0.04,0-0.083-0.021-0.083-0.061c0-0.065,0.052-0.085,0.166-0.085
		c0.466,0,1.118,0.031,1.168,0.031c0.072,0,2.131,0,2.369-0.012c0.195-0.011,0.363-0.029,0.442-0.051
		c0.054-0.01,0.095-0.052,0.147-0.052c0.032,0,0.042,0.042,0.042,0.092c0,0.076-0.052,0.199-0.083,0.486
		c-0.011,0.104-0.034,0.56-0.052,0.681c-0.011,0.051-0.031,0.114-0.07,0.114c-0.063,0-0.084-0.052-0.084-0.136
		c0-0.07-0.01-0.245-0.062-0.369c-0.072-0.167-0.178-0.29-0.736-0.354c-0.175-0.021-1.303-0.032-1.415-0.032
		c-0.042,0-0.063,0.032-0.063,0.105v2.854c0,0.074,0.011,0.105,0.063,0.105c0.133,0,1.406,0,1.643-0.021
		c0.247-0.021,0.394-0.041,0.485-0.145c0.075-0.086,0.115-0.136,0.156-0.136c0.029,0,0.052,0.018,0.052,0.084
		c0,0.061-0.052,0.238-0.083,0.575c-0.019,0.208-0.04,0.594-0.04,0.664c0,0.081,0,0.193-0.072,0.193
		c-0.052,0-0.075-0.041-0.075-0.093c0-0.101,0-0.202-0.04-0.338c-0.041-0.146-0.136-0.322-0.539-0.362
		c-0.28-0.032-1.301-0.052-1.477-0.052c-0.052,0-0.073,0.028-0.073,0.071v0.91c0,0.354-0.01,1.551,0,1.769
		c0.031,0.714,0.187,0.847,1.199,0.847c0.27,0,0.725,0,0.992-0.115c0.27-0.112,0.394-0.317,0.467-0.741
		c0.021-0.115,0.041-0.157,0.093-0.157c0.061,0,0.061,0.085,0.061,0.157c0,0.084-0.081,0.784-0.133,1.002
		c-0.072,0.27-0.156,0.27-0.56,0.27c-1.561,0-2.254-0.059-2.554-0.059c-0.05,0-0.702,0.028-1.012,0.028
		c-0.113,0-0.165-0.02-0.165-0.083c0-0.031,0.019-0.062,0.081-0.062c0.094,0,0.218-0.021,0.312-0.043
		c0.205-0.041,0.257-0.27,0.3-0.567c0.05-0.436,0.05-1.252,0.05-2.245V60.955z"/>
	<path clip-path="url(#SVGID_2_)" d="M60.471,60.789c0-0.796,0-1.847,0.009-2.201c0-0.113,0.031-0.166,0.124-0.207
		c0.083-0.041,0.467-0.074,0.674-0.074c1.229,0,2.407,0.147,3.38,1.171c0.423,0.445,0.992,1.293,0.992,2.606
		c0,0.951-0.289,1.943-0.826,2.469c-0.612,0.61-1.5,0.963-2.463,0.963c-1.22,0-1.622-0.218-1.757-0.413
		c-0.081-0.114-0.102-0.526-0.114-0.789c-0.01-0.191-0.019-1.143-0.019-2.241V60.789z M59.602,62.775c0,0.993,0,1.81-0.052,2.245
		c-0.039,0.298-0.094,0.526-0.299,0.567c-0.095,0.022-0.218,0.043-0.309,0.043c-0.064,0-0.082,0.03-0.082,0.062
		c0,0.063,0.049,0.083,0.163,0.083c0.309,0,0.963-0.028,1.013-0.028c0.104,0,1.406,0.122,2.296,0.122
		c1.757,0,2.687-0.728,3.133-1.19c0.579-0.61,1.116-1.612,1.116-2.916c0-1.229-0.485-2.087-1.002-2.629
		c-1.232-1.27-3.124-1.175-4.145-1.175c-0.622,0-1.272,0.032-1.398,0.032c-0.05,0-0.704-0.032-1.168-0.032
		c-0.115,0-0.164,0.02-0.164,0.085c0,0.04,0.041,0.061,0.08,0.061c0.094,0,0.271,0.011,0.353,0.031
		c0.341,0.072,0.424,0.233,0.446,0.587c0.019,0.333,0.019,0.621,0.019,2.232V62.775z"/>
	<path clip-path="url(#SVGID_2_)" d="M69.083,60.955c0-1.611,0-1.899-0.019-2.232c-0.023-0.354-0.105-0.515-0.446-0.587
		c-0.082-0.021-0.259-0.031-0.352-0.031c-0.042,0-0.083-0.021-0.083-0.061c0-0.065,0.052-0.085,0.166-0.085
		c0.466,0,1.116,0.031,1.168,0.031c0.074,0,2.13,0,2.366-0.012c0.198-0.011,0.366-0.029,0.449-0.051
		c0.05-0.01,0.091-0.052,0.141-0.052c0.033,0,0.043,0.042,0.043,0.092c0,0.076-0.053,0.199-0.083,0.486
		c-0.01,0.104-0.031,0.56-0.051,0.681c-0.01,0.051-0.029,0.114-0.07,0.114c-0.063,0-0.086-0.052-0.086-0.136
		c0-0.07-0.008-0.245-0.059-0.369c-0.074-0.167-0.178-0.29-0.735-0.354c-0.177-0.021-1.305-0.032-1.418-0.032
		c-0.039,0-0.061,0.032-0.061,0.105v2.854c0,0.074,0.009,0.105,0.061,0.105c0.133,0,1.405,0,1.643-0.021
		c0.247-0.021,0.393-0.041,0.488-0.145c0.073-0.086,0.115-0.136,0.156-0.136c0.031,0,0.052,0.018,0.052,0.084
		c0,0.061-0.052,0.238-0.085,0.575c-0.019,0.208-0.042,0.594-0.042,0.664c0,0.081,0,0.193-0.072,0.193
		c-0.052,0-0.073-0.041-0.073-0.093c0-0.101,0-0.202-0.04-0.338c-0.043-0.146-0.137-0.322-0.537-0.362
		c-0.28-0.032-1.305-0.052-1.481-0.052c-0.048,0-0.07,0.028-0.07,0.071v0.91c0,0.354-0.011,1.551,0,1.769
		c0.031,0.714,0.181,0.847,1.198,0.847c0.268,0,0.724,0,0.994-0.115c0.266-0.112,0.39-0.317,0.465-0.741
		c0.019-0.115,0.039-0.157,0.089-0.157c0.064,0,0.064,0.085,0.064,0.157c0,0.084-0.085,0.784-0.134,1.002
		c-0.071,0.27-0.156,0.27-0.556,0.27c-1.562,0-2.255-0.059-2.556-0.059c-0.052,0-0.702,0.028-1.013,0.028
		c-0.114,0-0.163-0.02-0.163-0.083c0-0.031,0.018-0.062,0.08-0.062c0.094,0,0.218-0.021,0.312-0.043
		c0.207-0.041,0.257-0.27,0.298-0.567c0.052-0.436,0.052-1.252,0.052-2.245V60.955z"/>
	<path clip-path="url(#SVGID_2_)" d="M79.618,62.795c0,1.519,0.042,2.186,0.228,2.367c0.166,0.166,0.433,0.239,1.243,0.239
		c0.546,0,0.999-0.011,1.249-0.312c0.137-0.16,0.239-0.422,0.27-0.618c0.01-0.084,0.029-0.137,0.091-0.137
		c0.052,0,0.062,0.041,0.062,0.157c0,0.115-0.072,0.732-0.153,1.035c-0.071,0.239-0.104,0.278-0.652,0.278
		c-1.489,0-2.172-0.06-2.771-0.06c-0.094,0-0.702,0.029-1.012,0.029c-0.115,0-0.169-0.02-0.169-0.083
		c0-0.031,0.023-0.062,0.083-0.062c0.095,0,0.22-0.021,0.313-0.044c0.205-0.04,0.257-0.269,0.297-0.565
		c0.054-0.437,0.054-1.252,0.054-2.245v-1.822c0-1.609,0-1.897-0.021-2.231c-0.021-0.354-0.104-0.515-0.444-0.587
		c-0.083-0.021-0.259-0.031-0.35-0.031c-0.044,0-0.086-0.021-0.086-0.062c0-0.063,0.053-0.084,0.167-0.084
		c0.466,0,1.12,0.031,1.168,0.031c0.052,0,0.807-0.031,1.116-0.031c0.113,0,0.166,0.021,0.166,0.084c0,0.04-0.044,0.062-0.084,0.062
		c-0.072,0-0.215,0.011-0.339,0.031c-0.302,0.05-0.384,0.224-0.403,0.587c-0.023,0.334-0.023,0.622-0.023,2.231V62.795z"/>
	<path clip-path="url(#SVGID_2_)" d="M85.667,62.354c-0.03,0-0.053-0.021-0.03-0.073l0.908-2.794c0.052-0.156,0.104-0.156,0.158,0
		l0.981,2.794c0.013,0.043,0.013,0.073-0.041,0.073H85.667z M84.222,64.636c-0.189,0.516-0.397,0.91-0.869,0.975
		c-0.084,0.01-0.227,0.02-0.302,0.02c-0.052,0-0.095,0.021-0.095,0.062c0,0.062,0.062,0.083,0.199,0.083
		c0.485,0,1.056-0.03,1.171-0.03c0.112,0,0.556,0.03,0.807,0.03c0.094,0,0.153-0.021,0.153-0.083c0-0.042-0.029-0.062-0.101-0.062
		h-0.104c-0.181,0-0.397-0.095-0.397-0.302c0-0.188,0.052-0.432,0.146-0.692l0.619-1.831c0.019-0.05,0.052-0.081,0.104-0.081h2.225
		c0.052,0,0.072,0.02,0.095,0.061l0.959,2.544c0.059,0.166,0,0.259-0.063,0.282c-0.041,0.01-0.07,0.03-0.07,0.07
		c0,0.064,0.109,0.064,0.309,0.074c0.713,0.021,1.467,0.021,1.622,0.021c0.114,0,0.208-0.021,0.208-0.083
		c0-0.052-0.044-0.062-0.106-0.062c-0.102,0-0.257-0.01-0.41-0.061c-0.217-0.063-0.52-0.231-0.889-1.151
		c-0.633-1.571-2.257-5.843-2.408-6.234c-0.124-0.32-0.166-0.372-0.229-0.372c-0.062,0-0.105,0.063-0.228,0.403L84.222,64.636z"/>
	<path clip-path="url(#SVGID_2_)" d="M91.716,60.955c0-1.611,0-1.899-0.021-2.232c-0.023-0.354-0.103-0.515-0.443-0.587
		c-0.081-0.021-0.258-0.031-0.353-0.031c-0.044,0-0.084-0.021-0.084-0.061c0-0.065,0.053-0.085,0.167-0.085
		c0.466,0,1.097,0.031,1.188,0.031c0.094,0,0.716-0.031,1.022-0.031c0.117,0,0.166,0.02,0.166,0.085c0,0.04-0.038,0.061-0.082,0.061
		c-0.073,0-0.133,0.01-0.258,0.031c-0.279,0.039-0.362,0.223-0.383,0.587c-0.019,0.333-0.019,0.621-0.019,2.232v1.45
		c0,1.489,0.332,2.129,0.774,2.553c0.508,0.476,0.973,0.569,1.562,0.569c0.629,0,1.254-0.303,1.623-0.745
		c0.477-0.59,0.599-1.469,0.599-2.533v-1.294c0-1.611,0-1.899-0.018-2.232c-0.02-0.354-0.104-0.515-0.447-0.587
		c-0.082-0.021-0.261-0.031-0.348-0.031c-0.039,0-0.082-0.021-0.082-0.061c0-0.065,0.051-0.085,0.161-0.085
		c0.467,0,1.033,0.031,1.098,0.031c0.072,0,0.557-0.031,0.867-0.031c0.113,0,0.166,0.02,0.166,0.085c0,0.04-0.04,0.061-0.084,0.061
		c-0.07,0-0.132,0-0.259,0.031c-0.273,0.049-0.359,0.223-0.381,0.587c-0.019,0.333-0.019,0.621-0.019,2.232v1.107
		c0,1.12-0.127,2.356-0.952,3.089c-0.743,0.666-1.518,0.768-2.129,0.768c-0.352,0-1.398-0.041-2.131-0.736
		c-0.506-0.484-0.9-1.206-0.9-2.716V60.955z"/>
	<path clip-path="url(#SVGID_2_)" d="M100.232,65.642c-0.143-0.072-0.153-0.115-0.153-0.396c0-0.516,0.041-0.932,0.054-1.094
		c0.011-0.112,0.031-0.164,0.081-0.164c0.064,0,0.073,0.03,0.073,0.112c0,0.093,0,0.234,0.031,0.381
		c0.155,0.765,0.838,1.055,1.531,1.055c0.992,0,1.477-0.711,1.477-1.374c0-0.716-0.298-1.128-1.187-1.86l-0.467-0.385
		c-1.094-0.899-1.346-1.54-1.346-2.241c0-1.108,0.83-1.863,2.141-1.863c0.405,0,0.706,0.042,0.963,0.104
		c0.195,0.042,0.28,0.051,0.361,0.051c0.082,0,0.108,0.023,0.108,0.075c0,0.051-0.044,0.39-0.044,1.091
		c0,0.168-0.021,0.24-0.073,0.24c-0.062,0-0.072-0.053-0.083-0.136c-0.008-0.124-0.074-0.401-0.135-0.516
		c-0.062-0.113-0.34-0.549-1.289-0.549c-0.717,0-1.277,0.444-1.277,1.2c0,0.588,0.293,0.94,1.267,1.737l0.284,0.229
		c1.223,0.962,1.513,1.603,1.513,2.43c0,0.424-0.163,1.212-0.879,1.716c-0.447,0.312-1.002,0.434-1.562,0.434
		C101.133,65.918,100.662,65.847,100.232,65.642"/>
	<path clip-path="url(#SVGID_2_)" d="M107.381,62.354c-0.029,0-0.051-0.021-0.029-0.073l0.91-2.794c0.051-0.156,0.101-0.156,0.15,0
		l0.983,2.794c0.01,0.043,0.01,0.073-0.043,0.073H107.381z M105.933,64.636c-0.185,0.516-0.392,0.91-0.872,0.975
		c-0.081,0.01-0.224,0.02-0.293,0.02c-0.055,0-0.094,0.021-0.094,0.062c0,0.062,0.06,0.083,0.195,0.083
		c0.485,0,1.051-0.03,1.165-0.03c0.114,0,0.563,0.03,0.807,0.03c0.094,0,0.156-0.021,0.156-0.083c0-0.042-0.033-0.062-0.102-0.062
		h-0.106c-0.173,0-0.389-0.095-0.389-0.302c0-0.188,0.052-0.432,0.145-0.692l0.618-1.831c0.021-0.05,0.055-0.081,0.106-0.081h2.22
		c0.051,0,0.072,0.02,0.091,0.061l0.963,2.544c0.062,0.166,0,0.259-0.061,0.282c-0.043,0.01-0.074,0.03-0.074,0.07
		c0,0.064,0.116,0.064,0.314,0.074c0.713,0.021,1.464,0.021,1.624,0.021c0.114,0,0.205-0.021,0.205-0.083
		c0-0.052-0.042-0.062-0.104-0.062c-0.101,0-0.261-0.01-0.414-0.061c-0.217-0.063-0.517-0.231-0.891-1.151
		c-0.628-1.571-2.253-5.843-2.408-6.234c-0.123-0.32-0.166-0.372-0.227-0.372c-0.062,0-0.103,0.063-0.226,0.403L105.933,64.636z"/>
	<path clip-path="url(#SVGID_2_)" d="M114.308,64.367c0.023,0.848,0.124,1.118,0.403,1.203c0.199,0.051,0.423,0.061,0.516,0.061
		c0.054,0,0.083,0.021,0.083,0.062c0,0.062-0.062,0.083-0.185,0.083c-0.591,0-0.999-0.03-1.094-0.03c-0.095,0-0.53,0.03-0.995,0.03
		c-0.104,0-0.166-0.011-0.166-0.083c0-0.042,0.033-0.062,0.081-0.062c0.085,0,0.274-0.01,0.427-0.061
		c0.255-0.075,0.309-0.377,0.309-1.314l0.009-5.928c0-0.4,0.031-0.516,0.114-0.516c0.085,0,0.261,0.231,0.366,0.333
		c0.155,0.173,1.695,1.837,3.285,3.544c1.026,1.096,2.149,2.361,2.482,2.697l-0.114-5.253c-0.013-0.671-0.084-0.897-0.403-0.978
		c-0.185-0.041-0.426-0.052-0.508-0.052c-0.071,0-0.081-0.029-0.081-0.072c0-0.064,0.081-0.073,0.205-0.073
		c0.465,0,0.963,0.032,1.079,0.032c0.114,0,0.45-0.032,0.876-0.032c0.114,0,0.186,0.009,0.186,0.073
		c0,0.043-0.041,0.072-0.111,0.072c-0.052,0-0.123,0-0.25,0.031c-0.342,0.072-0.383,0.296-0.383,0.92l-0.021,6.059
		c0,0.683-0.023,0.732-0.091,0.732c-0.081,0-0.206-0.114-0.755-0.664c-0.117-0.103-1.605-1.623-2.7-2.798
		c-1.197-1.294-2.369-2.596-2.696-2.969L114.308,64.367z"/>
	<path clip-path="url(#SVGID_2_)" d="M124.096,64.367c0.023,0.848,0.129,1.118,0.408,1.203c0.196,0.051,0.422,0.061,0.514,0.061
		c0.053,0,0.085,0.021,0.085,0.062c0,0.062-0.062,0.083-0.189,0.083c-0.587,0-1.002-0.03-1.096-0.03c-0.091,0-0.527,0.03-0.989,0.03
		c-0.104,0-0.166-0.011-0.166-0.083c0-0.042,0.032-0.062,0.085-0.062c0.081,0,0.265-0.01,0.419-0.061
		c0.259-0.075,0.312-0.377,0.312-1.314l0.01-5.928c0-0.4,0.031-0.516,0.114-0.516c0.082,0,0.26,0.231,0.361,0.333
		c0.155,0.173,1.695,1.837,3.288,3.544c1.023,1.096,2.152,2.361,2.484,2.697l-0.114-5.253c-0.01-0.671-0.083-0.897-0.403-0.978
		c-0.189-0.041-0.426-0.052-0.508-0.052c-0.071,0-0.081-0.029-0.081-0.072c0-0.064,0.081-0.073,0.205-0.073
		c0.465,0,0.96,0.032,1.074,0.032c0.113,0,0.455-0.032,0.88-0.032c0.112,0,0.184,0.009,0.184,0.073c0,0.043-0.04,0.072-0.114,0.072
		c-0.053,0-0.124,0-0.248,0.031c-0.338,0.072-0.38,0.296-0.38,0.92l-0.022,6.059c0,0.683-0.021,0.732-0.092,0.732
		c-0.085,0-0.208-0.114-0.752-0.664c-0.117-0.103-1.604-1.623-2.703-2.798c-1.198-1.294-2.366-2.596-2.698-2.969L124.096,64.367z"/>
	<path clip-path="url(#SVGID_2_)" d="M133.611,60.955c0-1.611,0-1.899-0.02-2.232c-0.022-0.354-0.104-0.515-0.444-0.587
		c-0.083-0.021-0.258-0.031-0.353-0.031c-0.042,0-0.081-0.021-0.081-0.061c0-0.065,0.052-0.085,0.163-0.085
		c0.465,0,1.119,0.031,1.171,0.031c0.07,0,2.131,0,2.369-0.012c0.195-0.011,0.356-0.029,0.442-0.051
		c0.051-0.01,0.093-0.052,0.145-0.052c0.031,0,0.042,0.042,0.042,0.092c0,0.076-0.052,0.199-0.084,0.486
		c-0.01,0.104-0.031,0.56-0.052,0.681c-0.01,0.051-0.031,0.114-0.074,0.114c-0.063,0-0.081-0.052-0.081-0.136
		c0-0.07-0.013-0.245-0.062-0.369c-0.071-0.167-0.175-0.29-0.738-0.354c-0.173-0.021-1.299-0.032-1.409-0.032
		c-0.046,0-0.065,0.032-0.065,0.105v2.854c0,0.074,0.013,0.105,0.065,0.105c0.132,0,1.402,0,1.643-0.021
		c0.247-0.021,0.392-0.041,0.485-0.145c0.068-0.086,0.11-0.136,0.153-0.136c0.032,0,0.052,0.018,0.052,0.084
		c0,0.061-0.052,0.238-0.085,0.575c-0.021,0.208-0.039,0.594-0.039,0.664c0,0.081,0,0.193-0.072,0.193
		c-0.052,0-0.071-0.041-0.071-0.093c0-0.101,0-0.202-0.042-0.338c-0.041-0.146-0.134-0.322-0.537-0.362
		c-0.282-0.032-1.305-0.052-1.477-0.052c-0.056,0-0.075,0.028-0.075,0.071v0.91c0,0.354-0.01,1.551,0,1.769
		c0.031,0.714,0.188,0.847,1.2,0.847c0.267,0,0.724,0,0.993-0.115c0.266-0.112,0.39-0.317,0.467-0.741
		c0.017-0.115,0.037-0.157,0.091-0.157c0.063,0,0.063,0.085,0.063,0.157c0,0.084-0.084,0.784-0.137,1.002
		c-0.071,0.27-0.154,0.27-0.559,0.27c-1.562,0-2.255-0.059-2.551-0.059c-0.052,0-0.706,0.028-1.012,0.028
		c-0.117,0-0.166-0.02-0.166-0.083c0-0.031,0.02-0.062,0.08-0.062c0.093,0,0.22-0.021,0.311-0.043
		c0.206-0.041,0.257-0.27,0.299-0.567c0.052-0.436,0.052-1.252,0.052-2.245V60.955z"/>
</g>
<g>
	<g>
		<line fill="none" stroke="#000000" stroke-width="1.6" stroke-miterlimit="10" x1="152.418" y1="0" x2="152.418" y2="65.987"/>
	</g>
</g>
</svg>
